HIERARCHY
ROOT Hips
{
  OFFSET 127.548 95.0288 96.5434
  CHANNELS 6 Xposition Yposition Zposition Zrotation Xrotation Yrotation
  JOINT RightUpLeg
  {
    OFFSET -8.9458 -8.66707 0.101652
    CHANNELS 3 Zrotation Xrotation Yrotation
    JOINT RightLeg
    {
      OFFSET 0 -44.4227 1.3727
      CHANNELS 3 Zrotation Xrotation Yrotation
      JOINT RightFoot
      {
        OFFSET 0.253549 -42.0924 -1.46059
        CHANNELS 3 Zrotation Xrotation Yrotation
        JOINT RightToes
        {
          OFFSET 0.04 -4.41509 8.4991
          CHANNELS 3 Zrotation Xrotation Yrotation
          End Site
          {
            OFFSET -0.08 -0.137448 9.77979
          }
        }
      }
    }
  }
  JOINT Spine
  {
    OFFSET 0 11.8905 0
    CHANNELS 3 Zrotation Xrotation Yrotation
    JOINT Spine1
    {
      OFFSET 0 25.6574 0.127663
      CHANNELS 3 Zrotation Xrotation Yrotation
      JOINT HEad
      {
        OFFSET 0 8.73416 0.011341
        CHANNELS 3 Zrotation Xrotation Yrotation
        End Site
        {
          OFFSET -0.29 12.7742 2.51395
        }
      }
      JOINT LeftShoulder1
      {
        OFFSET 8.99 -0.362252 -0.22
        CHANNELS 3 Zrotation Xrotation Yrotation
        JOINT LeftArm
        {
          OFFSET 10.2827 -0.00338 0.322123
          CHANNELS 3 Zrotation Xrotation Yrotation
          JOINT LeftForeArm
          {
            OFFSET 32.7669 0.099144 -1.42434
            CHANNELS 3 Zrotation Xrotation Yrotation
            JOINT LeftHand
            {
              OFFSET 27.5643 0.085362 1.02216
              CHANNELS 3 Zrotation Xrotation Yrotation
              End Site
              {
                OFFSET 16.7443 -0.6 1.50291
              }
            }
          }
        }
      }
      JOINT RightShoulder
      {
        OFFSET -8.99 -0.362252 -0.22
        CHANNELS 3 Zrotation Xrotation Yrotation
        JOINT RightArm
        {
          OFFSET -10.2827 -0.00338 0.322123
          CHANNELS 3 Zrotation Xrotation Yrotation
          JOINT RightForeArm
          {
            OFFSET -32.8971 0.099144 -1.42434
            CHANNELS 3 Zrotation Xrotation Yrotation
            JOINT RightHand
            {
              OFFSET -27.4921 0.085362 1.02216
              CHANNELS 3 Zrotation Xrotation Yrotation
              End Site
              {
                OFFSET -16.6312 -0.6 1.50291
              }
            }
          }
        }
      }
    }
  }
  JOINT LeftUpLeg
  {
    OFFSET 8.9458 -8.66707 0.101652
    CHANNELS 3 Zrotation Xrotation Yrotation
    JOINT LeftLeg
    {
      OFFSET 0 -44.4227 1.3727
      CHANNELS 3 Zrotation Xrotation Yrotation
      JOINT LeftFoot
      {
        OFFSET -0.253549 -42.0924 -1.46059
        CHANNELS 3 Zrotation Xrotation Yrotation
        JOINT LeftToes
        {
          OFFSET -0.04 -4.41509 8.4991
          CHANNELS 3 Zrotation Xrotation Yrotation
          End Site
          {
            OFFSET 0.08 -0.047448 9.77979
          }
        }
      }
    }
  }
}
MOTION
Frames:	16
Frame Time:	0.0166667
92.59 80.1708 106.6 -11.116 1.20265 -146.318 -17.1392 -47.2469 -33.6534 8.81697 75.3913 -17.3105 -29.3023 -0.662933 -3.05225 0.0462048 0.000533403 0.662642 -8.95876 13.5051 -1.22192 0.0250976 0.04361 -0.0510512 -4.87943 8.37813 -3.20352 -7.95139e-016 7.95139e-016 6.36111e-015 -121.981 -22.9863 -73.5897 -126.18 49.6149 -7.06426 11.1335 32.5294 0.573838 5.16429 20.9632 19.8703 -162.129 -26.7724 173.286 133.396 39.7108 3.20275 -6.89201 28.4119 0.356266 33.1788 -30.593 -10.4368 -55.3089 60.6582 37.2215 -34.6387 1.58256 0.0482412 -1.31729e-009 1.56059e-007 -4.93736e-009 
95.4038 84.3358 105.168 -11.1774 0.671313 -143.398 -12.6357 -44.5274 -29.6056 -7.24389 71.0697 1.33822 -24.2278 -2.44817 -2.52981 0.0462048 0.000533403 0.662642 -10.7029 12.0748 -0.0839042 0.0229778 0.0397199 -0.0461912 -1.87508 14.7443 -3.4777 7.95139e-016 -3.97569e-016 6.36111e-015 -118.316 -22.329 -70.4584 -125.656 49.3831 -7.99568 11.9128 33.0309 -1.01816 2.50578 22.0301 22.4702 -155.672 -24.4322 176.109 134.359 40.2741 2.67552 -8.34474 28.029 0.049667 30.3298 -26.9628 -6.97488 -61.1684 62.8371 37.7656 -40.3865 3.316 0.925309 -1.3173e-009 1.56059e-007 -4.93736e-009 
98.3518 89.1971 103.594 -10.836 0.362857 -140.8 -7.07275 -40.9248 -24.2836 -15.1672 63.8196 11.3683 -18.9822 -3.93467 -2.47087 0.0462048 0.000533403 0.662642 -10.8703 12.0458 0.153854 0.0841472 0.11628 -0.0651342 0.103212 18.8115 -3.56173 5.96354e-016 7.95139e-016 3.18055e-015 -116.404 -21.8468 -69.2148 -125.396 49.2557 -8.97268 10.166 31.7223 -0.388128 1.47774 21.4809 23.9713 -152.336 -23.3797 178.037 135.425 40.8867 1.99577 -8.0237 28.3822 1.0681 25.5703 -24.9384 -2.21976 -68.5963 65.9883 42.479 -25.3464 3.75459 2.27842 -1.31729e-009 1.56059e-007 -4.93737e-009 
100.897 93.2057 102.587 -8.37326 0.500034 -137.522 -1.24401 -39.0673 -19.8687 -20.0235 57.2025 17.2058 -13.4346 -5.62322 -2.26715 0.0462048 0.000533403 0.662642 -7.88286 12.2421 -1.4114 0.0782178 0.10648 -0.0512438 1.12144 21.0927 -3.53786 1.59028e-015 0 -0 -115.918 -21.6083 -69.3631 -125.389 49.2271 -9.92929 10.4481 32.304 -1.39984 1.96179 19.783 24.4032 -151.583 -23.5916 179.542 136.415 41.5224 1.25186 -8.90701 28.1331 1.09109 22.5009 -21.8505 1.52498 -64.3788 67.8686 37.9097 -20.9228 4.74403 2.0984 -1.31729e-009 1.56059e-007 -4.93736e-009 
102.95 96.9701 101.942 -4.29338 1.00393 -133.642 5.06654 -37.9293 -15.596 -22.92 50.0454 20.0143 -7.52129 -6.80468 -1.71291 0.0462048 0.000533403 0.662642 -3.35269 11.2122 -4.00461 -3.11846e-005 0.01202 -0.02507 2.17189 22.93 -3.69641 0 3.97569e-016 -0 -115.514 -21.6829 -69.4932 -125.519 49.3568 -10.7366 9.3459 31.6086 -1.32192 2.73887 18.2461 24.4453 -151.533 -24.2242 -179.474 137.263 42.106 0.568456 -8.82546 28.4518 1.91594 19.837 -18.978 4.82234 -51.0779 67.6202 27.0156 -12.2783 4.5066 1.71959 -1.31729e-009 1.56059e-007 -4.93737e-009 
104.706 100.104 101.706 -0.87239 1.56674 -130.208 10.5051 -36.3985 -10.3103 -24.8997 43.209 21.22 -1.53754 -7.49029 -0.902525 0.0462048 0.000533403 0.662642 0.538226 10.0865 -6.25612 -0.000721004 0.00938998 -0.02119 3.05725 24.1888 -4.00684 1.59028e-015 7.95139e-016 -3.18055e-015 -115.732 -21.6227 -69.9291 -125.253 49.5191 -11.3468 9.61102 32.062 -2.36975 9.00952 12.2192 13.1733 -158.835 -34.6835 174.185 138.363 42.4725 0.249858 -9.19399 28.1967 2.01455 16.3236 -14.6434 8.16384 -30.8466 63.1825 11.7418 -2.2565 3.43232 1.02446 -1.31729e-009 1.56059e-007 -4.93736e-009 
106.182 102.393 101.867 2.21766 2.20073 -126.881 15.4667 -35.0179 -4.82177 -26.6022 36.9597 21.7726 3.90189 -8.06822 -0.117529 0.0462048 0.000533403 0.662642 4.14526 8.78668 -8.36063 -0.00100735 0.00760001 -0.00760984 4.054 24.9803 -4.74321 -7.95139e-016 1.59028e-015 -0 -116.152 -21.5473 -70.4424 -124.715 49.6066 -12.0126 9.62317 32.2181 -3.20953 13.0232 7.26717 6.36058 -165.239 -41.4411 169.297 139.625 42.7008 0.230065 -9.44061 28.1338 2.15708 12.8979 -10.3693 11.513 -16.384 56.0386 0.95408 6.54938 2.51794 0.818307 -1.31729e-009 1.56059e-007 -4.93736e-009 
107.823 103.839 102.264 4.93783 2.85404 -123.647 19.8076 -33.7698 0.783027 -28.5525 31.2664 22.1509 9.00033 -8.55951 0.647877 0.0462048 0.000533403 0.662642 7.42579 7.39148 -10.295 -0.000740106 0.00203999 -0.00228996 5.09039 25.2664 -5.85127 -0 -7.95139e-016 -0 -116.78 -21.5298 -71.0044 -124.15 49.6403 -12.6334 9.60181 32.2605 -3.82473 15.7416 3.67004 2.10286 -172.536 -46.0691 163.963 139.408 43.5098 0.886023 -9.5381 27.9792 2.26388 9.80512 -6.19144 14.7138 -6.33809 46.8528 -5.934 12.6692 1.56355 0.733524 -1.3173e-009 1.56059e-007 -4.93735e-009 
109.399 104.798 102.767 7.31787 3.49339 -120.506 23.2108 -32.6308 6.27858 -30.6951 26.1881 22.3864 13.8559 -8.85317 1.43073 0.0462048 0.000533403 0.662642 10.3881 5.91945 -12.0523 0.00078003 -0.00149 0.000679964 6.07392 25.0493 -7.2877 -7.95139e-016 -2.38542e-015 -9.54166e-015 -118.383 -22.6672 -71.9614 -123.412 49.7422 -13.0593 8.6151 31.162 -4.48926 17.6979 1.35312 -0.622169 179.124 -48.9571 157.755 137.787 44.8495 2.13095 -9.52031 27.7278 2.25477 7.04849 -2.23065 17.813 0.0570953 36.6858 -10.338 16.81 0.525257 0.728352 -1.3173e-009 1.56059e-007 -4.93736e-009 
110.848 104.996 103.297 8.77514 4.2795 -117.295 25.0277 -30.9402 11.0806 -31.9769 21.8124 21.0673 17.8492 -8.88557 2.13586 0.0462048 0.000533403 0.662642 13.1436 5.03134 -13.4454 0.0125914 0.01619 0.0270094 7.16252 24.851 -8.82011 3.18055e-015 7.95139e-016 -0 -121.453 -23.8072 -72.5449 -122.518 49.8971 -11.9803 6.83298 32.3376 0.017765 18.1046 1.65361 -5.17915 168.998 -48.1987 147.61 135.267 45.7657 2.12058 -10.3091 28.4036 3.03873 5.08229 1.78145 20.2549 3.10973 26.4311 -11.9469 17.5179 -0.959249 0.905305 -1.3173e-009 1.56059e-007 -4.93736e-009 
112.24 105.093 103.762 9.34227 5.11592 -114.134 25.2972 -28.7342 15.2303 -32.5967 18.1846 18.5083 21.106 -8.83769 2.73587 0.0462048 0.000533403 0.662642 15.6658 4.70791 -14.4197 0.0108514 0.01761 0.0281794 8.2445 24.4959 -10.7271 1.59028e-015 0 3.18055e-015 -124.501 -24.3089 -72.6311 -119.749 50.5961 -11.5491 3.56174 34.8904 6.93215 18.6909 2.18383 -7.80602 161.16 -46.4582 140.666 132.037 46.2338 1.01519 -11.8352 29.8388 5.14446 3.74142 5.50371 22.293 4.34989 17.3553 -12.0806 15.972 -3.35895 1.24381 -1.3173e-009 1.56059e-007 -4.93736e-009 
113.734 104.694 104.197 9.06126 5.91268 -111.11 24.8224 -26.249 19.1562 -33.6162 15.6434 15.3499 24.1308 -8.98371 3.20562 0.0462048 0.000533403 0.662642 17.9245 4.96562 -14.9524 0.00818138 0.01764 0.0276896 9.35945 23.9591 -13.0003 0 0 -0 -127.377 -24.2532 -72.1757 -115.304 51.8739 -11.8946 -1.65693 38.5055 14.8596 19.3351 2.87974 -8.86032 156.534 -44.7406 138.053 128.803 46.4565 0.472852 -13.4075 31.1853 7.1136 3.7481 8.11847 23.8876 3.51294 12.0833 -11.137 13.7603 -7.6784 1.76154 -1.3173e-009 1.56059e-007 -4.93736e-009 
115.231 103.915 104.596 6.37139 6.40212 -108.895 21.8166 -22.1607 22.4113 -32.7217 15.0009 9.32003 26.2219 -9.13105 3.49449 0.0462048 0.000533403 0.662642 18.8901 7.01456 -14.9632 -0.00281026 0.000950007 -0.00553986 10.5501 23.7969 -15.3508 -1.59028e-015 -7.95139e-016 -0 -129.452 -23.5912 -70.7317 -104.931 54.379 -15.5589 -5.5665 30.9472 2.9201 19.7085 4.00539 -6.50573 157.991 -44.373 142.457 126.728 46.5119 -0.172274 -14.893 32.328 8.82453 5.80026 9.32537 24.5429 -0.676074 14.3486 -6.84744 11.4725 -15.0903 2.20792 -1.31729e-009 1.56059e-007 -4.93736e-009 
116.591 102.923 104.998 1.81125 6.46025 -107.653 17.1238 -16.7136 25.5793 -29.894 15.1346 1.28933 27.6117 -9.43543 3.60321 0.0462048 0.000533403 0.662642 18.8413 10.9323 -14.6522 -0.00326036 0.000689997 -0.00764984 11.658 23.6337 -17.3841 1.59028e-015 -3.18055e-015 -0 -131.104 -22.5569 -69.0151 -89.8815 57.2968 -22.8594 -11.2701 30.7584 2.45408 19.9239 5.00242 -4.51538 160.549 -43.7297 147.427 125.627 46.4452 -1.1794 -15.547 32.5107 9.95311 6.47534 12.0715 25.3481 -6.67829 16.9044 -1.55326 17.3614 -20.9673 3.29436 -1.31729e-009 1.56059e-007 -4.93736e-009 
117.705 102.053 105.209 -2.24783 6.41232 -106.735 12.0142 -12.2386 28.5835 -24.8318 15.212 -8.11356 28.0752 -9.84186 3.61651 0.0462048 0.000533403 0.662642 18.8226 14.4559 -14.189 -0.00326036 0.000689997 -0.00764984 12.6804 23.4896 -19.0967 1.59028e-015 7.95139e-016 -3.18055e-015 -132.459 -21.3307 -67.1765 -70.5968 59.6278 -34.5116 -17.5331 24.2964 -7.86947 19.9928 5.9088 -2.9022 163.523 -42.6223 152.302 125.272 46.3151 -2.59453 -16.3011 32.6538 11.0565 7.93018 14.9129 24.7478 -11.047 19.1274 2.95025 17.3546 -23.8872 3.39984 -1.3173e-009 1.56059e-007 -4.93736e-009 
118.68 101.291 105.311 -5.82335 6.29107 -106.114 6.58747 -9.1681 31.2775 -17.3696 15.1398 -18.1355 27.6455 -10.5345 3.64575 0.0462048 0.000533403 0.662642 18.7893 17.6115 -13.5876 -0.00326036 0.000689997 -0.00764984 13.6031 23.3525 -20.5 1.59028e-015 -1.59028e-015 -3.18055e-015 -133.686 -19.9235 -65.4897 -58.6338 60.6735 -42.1534 -20.2148 24.4283 -8.32304 19.9875 6.7053 -1.38444 166.567 -41.165 156.966 125.44 46.1881 -4.35874 -16.6219 32.3383 11.7669 9.12475 17.9583 23.1068 -15.0595 19.6128 7.03829 18.7669 -24.6864 3.47996 -1.31729e-009 1.56059e-007 -4.93737e-009 
